<svg xmlns="http://www.w3.org/2000/svg" viewBox="0 0 24 24" fill="none" stroke="currentColor" stroke-width="1.5" stroke-linecap="round" stroke-linejoin="round">
  <!-- Gesso e Drywall - Trowel -->
  <symbol id="icon-gesso" viewBox="0 0 24 24">
    <path d="M4 20h16M6 16l2-8h8l2 8M8 8l4-4 4 4"/>
  </symbol>
  
  <!-- Sancas, Nichos e Forros - Lightbulb -->
  <symbol id="icon-sancas" viewBox="0 0 24 24">
    <path d="M9 18h6M12 2C6.48 2 2 6.48 2 12c0 2.85 1.2 5.4 3.1 7.2M22 12c0-5.52-4.48-10-10-10"/>
    <circle cx="12" cy="12" r="8"/>
    <circle cx="12" cy="12" r="4" fill="currentColor"/>
  </symbol>
  
  <!-- Elétrica - Lightning -->
  <symbol id="icon-eletrica" viewBox="0 0 24 24">
    <path d="M13 2L3 14h9l-1 8 10-12h-9l1-8z"/>
  </symbol>
  
  <!-- Pintura - Palette -->
  <symbol id="icon-pintura" viewBox="0 0 24 24">
    <circle cx="12" cy="12" r="10"/>
    <circle cx="8" cy="8" r="2" fill="currentColor"/>
    <circle cx="16" cy="8" r="2" fill="currentColor"/>
    <circle cx="8" cy="16" r="2" fill="currentColor"/>
    <circle cx="16" cy="16" r="2" fill="currentColor"/>
  </symbol>
  
  <!-- Projetos Executivos - Palette (similar) -->
  <symbol id="icon-projetos-exec" viewBox="0 0 24 24">
    <circle cx="12" cy="12" r="10"/>
    <circle cx="8" cy="8" r="1.5" fill="currentColor"/>
    <circle cx="16" cy="8" r="1.5" fill="currentColor"/>
    <circle cx="8" cy="16" r="1.5" fill="currentColor"/>
    <circle cx="16" cy="16" r="1.5" fill="currentColor"/>
  </symbol>
  
  <!-- Projetos 3D - Ruler/Pencil -->
  <symbol id="icon-projetos-3d" viewBox="0 0 24 24">
    <path d="M3 3l18 18M3 21L21 3"/>
    <rect x="2" y="2" width="20" height="20" fill="none"/>
  </symbol>
  
  <!-- 20+ Anos - Star -->
  <symbol id="icon-anos" viewBox="0 0 24 24">
    <path d="M12 2l3.09 6.26L22 9.27l-5 4.87 1.18 6.88L12 17.77l-6.18 3.25L7 14.14 2 9.27l6.91-1.01L12 2z"/>
  </symbol>
</svg>
